<?xml version="1.0" standalone="no"?>
<!DOCTYPE svg PUBLIC "-//W3C//DTD SVG 20010904//EN"
 "http://www.w3.org/TR/2001/REC-SVG-20010904/DTD/svg10.dtd">
<svg version="1.0" xmlns="http://www.w3.org/2000/svg"
 width="1200.000000pt" height="1200.000000pt" viewBox="0 0 1200.000000 1200.000000"
 preserveAspectRatio="xMidYMid meet">
<metadata>
Created by potrace 1.14, written by Peter Selinger 2001-2017
</metadata>
<g transform="translate(0.000000,1200.000000) scale(0.100000,-0.100000)"
fill="#000000" stroke="none">
<path d="M1080 11995 c-8 -2 -49 -9 -90 -15 -97 -16 -229 -59 -322 -106 -332
-167 -564 -467 -644 -834 -18 -82 -19 -242 -19 -5040 0 -4793 1 -4958 19
-5040 105 -482 475 -845 961 -941 59 -12 840 -14 5020 -14 4793 0 4953 1 5035
19 483 106 845 475 941 961 12 59 14 840 14 5015 0 4175 -2 4956 -14 5015 -95
479 -439 837 -921 958 l-85 22 -4940 1 c-2717 1 -4947 0 -4955 -1z m5665
-2165 c682 -40 1142 -163 1530 -408 403 -256 712 -696 817 -1164 20 -90 23
-130 23 -318 0 -243 -15 -340 -82 -520 -158 -426 -473 -760 -939 -996 -69 -35
-120 -66 -112 -68 7 -3 53 -17 102 -31 1059 -315 1607 -1167 1401 -2180 -100
-495 -420 -985 -815 -1250 -342 -229 -795 -376 -1370 -444 -364 -43 -375 -44
-2247 -48 l-1813 -4 0 3720 0 3721 1668 0 c976 0 1737 -4 1837 -10z"/>
<path d="M4700 7826 l0 -886 849 0 c847 0 1008 5 1201 36 338 56 582 213 695
449 57 118 75 194 82 340 18 400 -179 719 -523 844 -97 35 -198 56 -374 77
-112 14 -290 17 -1032 21 l-898 5 0 -886z"/>
<path d="M4708 5614 c-5 -4 -8 -470 -8 -1036 l0 -1028 878 0 c970 0 1191 7
1382 46 275 55 446 136 593 281 159 157 250 349 278 586 44 379 -113 728 -415
925 -177 115 -405 178 -776 213 -134 13 -1921 25 -1932 13z"/>
</g>
</svg>
